<svg xmlns="http://www.w3.org/2000/svg" viewBox="0 0 82.35 143.91"><defs><style>.cls-1{fill:#3e0218;}</style></defs><g id="Capa_2" data-name="Capa 2"><g id="Capa_1-2" data-name="Capa 1"><path class="cls-1" d="M63.7,37.91l9-8.6c2.46,5.41,2.21,7.75-2,10.64C66.26,43,63.05,48,59.63,52.4c-.77,1-.8,3.62,0,4.47s3.09,1.15,4.54.84c3-.64,5.91-2.28,9-2.68s6.07.27,9.26.47l-4,1.61.76.69-3.74,4.71c-.49-1.78-1-3.55-1.69-6.18L56.61,60c.6,4.31,1.16,9.64,2.21,14.87.24,1.18,2,2.54,3.39,2.9,8.22,2.23,12.5,8.55,10.42,15.82s-8.53,10.55-16.57,8.26l-2.23-.58c5.5,6.91,6.26,11,3.19,15.58-3.27,4.9-7.3,5.44-17.68,2,.91,9.76-2.83,15.58-13.18,14.78-3.12,8-6.85,11-12.37,10.16C7,142.7,3.43,136.34,5.59,129.43c.45-1.46.65-3.57-.08-4.72-5-7.87-2.86-14.32,6-17.61a6,6,0,0,0,2.32-1.78C7.26,104,2.15,101.15.4,94.47-1.09,88.75,1.55,83.83,8.58,79.4c-.84-1.4-1.81-2.75-2.51-4.22A12.49,12.49,0,0,1,9.59,59.87c4.86-3.75,11.61-3.74,16,.62,2,2,3.54,2.18,6,1.35,2-.66,4.25-.51,6.4-.61,9.52-.48,15.26-5.1,17.94-14.75l-5.69-3.6c-2.62,5.85-2.68,5.91-15.41,13.37-.58-3-1.11-5.86-1.71-9-7.86,1.53-14.8-1-21.33-5.79C13.49,34.72,16.27,29,24.69,28.2,16.81,20.27,16,11.2,17.45.9c5.33,2.15,11.82-1,16.37,4.45L18.59,2.7,18,4.64l10.31,4.2L27.86,9l.43-.09c4.18-4.42,6.12,2.65,10.26,1.73V7.21l4.35,4.58C44.21,4.2,50.64,2.78,56,0h2c1.26,3.1,3.24,6.11,3.62,9.31.5,4.35-.23,8.84-.43,13.39l9,2.71C63.8,30,63.07,40,52.75,37.93c2.09,2.89,3.89,3.35,6.82,1.9l4.34-2.13-8.18,5.44c3.6,1.59,13.81-3.68,16.49-9.73-.49,0-1.06-.17-1.4,0C68.42,34.89,66.07,36.41,63.7,37.91ZM57.13,96.07c6.42.06,12-4.41,11.9-9.57-.08-4.36-3.34-7.19-8.33-7.23-5.73,0-10.59,4.41-10.57,9.7C50.14,93.64,52.49,96,57.13,96.07Zm-23.76,16.5c6.12-.1,11.39-4.54,11.51-9.67.08-3.61-4-7-8.32-7C30.9,96,25.82,100.79,26,105.86,26.23,110.6,28.47,112.65,33.37,112.57ZM35,63C29.19,63,24.2,67.47,24.3,72.65c.08,3.75,4.68,7.25,9.31,7.1s9.08-5.19,9.08-10.3C42.7,65.56,39.69,63.05,35,63ZM14.11,75.76c5.51.16,10.47-5.11,10.79-11.49.15-2.91-3.41-5.45-7.71-5.5-5.36-.05-10.14,4.31-10.33,9.43C6.66,73.9,8.27,75.58,14.11,75.76ZM15.74,81c-1.88.21-5.05,0-7.73,1a9.09,9.09,0,0,0-5.27,11.9c1.24,3.45,5.42,5,10.06,3.26,1.32-.5,2.64-2.64,2.81-4.16C16,89.37,15.74,85.7,15.74,81ZM13,138.8c4.32,0,9-4.44,8.83-8.43-.17-4.26-3-5.53-6.7-5.59-4.5-.07-8.59,3.88-8.43,8S9.2,138.52,13,138.8ZM25.89,80.06c-4.48.08-8.22,3.58-8.13,7.77s2.19,6.11,6.31,6,9.09-4.47,8.7-8.07C32.35,81.8,29.78,80,25.89,80.06ZM13.81,108.81c-5.18-.09-9.09,3.36-8.93,7.49.12,3.19,1.15,6,5,6.12,5.11.21,9.78-3.47,9.79-7.84S16.67,109.14,13.81,108.81ZM47.4,97.2c.18-3.75.13-7.12.57-10.44.47-3.49-1.43-4.38-4.23-4.59-5-.37-7.17,1.85-6.79,7,.11,1.44,0,2.89,0,3.88ZM35.28,120.38a42.82,42.82,0,0,1-4-1.61c-2.05-1.06-4-2.27-6-3.43-.74,2.43-1.52,4.84-2.21,7.27-.93,3.28.85,5.65,4.14,5.17C31.25,127.19,34.85,125.73,35.28,120.38Zm-11.92-8.9c.22-3,.5-5.61.55-8.21,0-1.34-.11-3.71-.6-3.82a6.44,6.44,0,0,0-4.51.54c-4.18,2.56-4.06,5.45.06,8.25C20.31,109.23,21.71,110.28,23.36,111.48Zm24.3,4.27c3.53-1,7-3.17,7-7.59,0-2.08-2.69-4.17-4.5-6.73Zm-5-96.26c1-.25,1.57-.23,1.88-.51s1-1.05,1-1.54C45,10.2,49.28,7.33,55.51,6c.85-.19,1.44-1.54,2.69-3C45.69,2.7,44.19,10.82,42.65,19.49Zm-27,18.83,13.47-7.81C22,28,15.86,31.63,15.69,38.32ZM51.54,67.49,49,66.83Q47.52,73.4,46.07,80l1.73.5Zm6.15-19.41C55.36,55.9,50,60.47,41.49,62.65,50.94,63.14,57.09,57.41,57.69,48.08Z"/><path class="cls-1" d="M28.32,8.84l-.06,0-.4.09Z"/></g></g></svg>